<svg xmlns="http://www.w3.org/2000/svg" width="540" height="120" viewBox="0 0 540 120" fill="none" aria-label="Overvalued">
  
  <g transform="translate(8, 30)">
    <g stroke="#FFFFFF" stroke-opacity="0.12" stroke-width="0.6">
      <line x1="0" y1="15" x2="60" y2="15"></line>
      <line x1="0" y1="30" x2="60" y2="30"></line>
      <line x1="0" y1="45" x2="60" y2="45"></line>
      <line x1="15" y1="0" x2="15" y2="60"></line>
      <line x1="30" y1="0" x2="30" y2="60"></line>
      <line x1="45" y1="0" x2="45" y2="60"></line>
    </g>
    <g transform="scale(0.6)">
      <path fill="#E63946" d="M 8 20 L 22 20 L 22 12 L 34 12 L 34 22 L 50 22 L 50 30 L 64 30 L 64 42 L 82 42 L 82 56 L 96 56 L 96 78 L 88 78 L 88 86 L 76 86 L 76 78 L 30 78 L 30 86 L 18 86 L 18 78 L 10 78 L 10 56 L 8 56 Z"></path>
      <path fill="#FFFFFF" d="M 18 38 L 22 34 L 26 38 L 22 42 Z"></path>
      <path fill="#E63946" d="M 8 56 L 8 64 L 0 56 Z"></path>
      <polyline points="2,10 22,18 38,28 58,42 80,54 98,72" stroke="#FFFFFF" stroke-width="2.5" fill="none" stroke-linecap="square" stroke-linejoin="miter"></polyline>
      <path d="M 98 72 L 92 66 M 98 72 L 92 76" stroke="#FFFFFF" stroke-width="2.5" stroke-linecap="square" fill="none"></path>
    </g>
  </g>
  
  <text x="92" y="68" font-family="JetBrains Mono, monospace" font-weight="700" font-size="28" letter-spacing="1.4" fill="#FFFFFF">
    <tspan fill="#E63946">▼</tspan> OVERVALUED
  </text>
  <text x="92" y="88" font-family="JetBrains Mono, monospace" font-weight="500" font-size="9" letter-spacing="2.2" fill="#7A7A7A">SHORT WHAT YOU HATE</text>
</svg>